<svg width="16" height="16" viewBox="0 0 16 16" fill="none" xmlns="http://www.w3.org/2000/svg">
<g clip-path="url(#clip0_20020_60671)">
<mask id="mask0_20020_60671" style="mask-type:luminance" maskUnits="userSpaceOnUse" x="0" y="0" width="16" height="16">
<path d="M15.7539 7.92065C15.7539 12.2324 12.2531 15.7331 7.9414 15.7331C3.62942 15.7331 0.128906 12.2324 0.128906 7.92065C0.128906 3.60893 3.62942 0.108154 7.9414 0.108154C12.2531 0.108154 15.7539 3.60893 15.7539 7.92065Z" fill="white"/>
</mask>
<g mask="url(#mask0_20020_60671)">
<path d="M7.94141 0.608154C11.977 0.608156 15.2539 3.88508 15.2539 7.92065C15.2539 11.9562 11.977 15.2332 7.94141 15.2332C3.90583 15.2332 0.628908 11.9562 0.628906 7.92065C0.628906 3.88508 3.90583 0.608154 7.94141 0.608154ZM7.57031 5.92065L5.26074 8.47339L4.50488 9.30835H11.3779L10.6221 8.47339L8.3125 5.92065L7.94141 5.5105L7.57031 5.92065Z" stroke="#848689"/>
</g>
</g>
<defs>
<clipPath id="clip0_20020_60671">
<rect width="16" height="16" fill="white"/>
</clipPath>
</defs>
</svg>
