<svg width="16" height="16" viewBox="0 0 16 16" fill="none" xmlns="http://www.w3.org/2000/svg">
<g clip-path="url(#clip0_20020_60669)">
<path d="M14.001 12.4935L14.1484 12.5023C14.49 12.5385 14.8109 12.6916 15.0547 12.9379C15.3331 13.2193 15.4886 13.5996 15.4873 13.9955C15.486 14.3916 15.3274 14.7715 15.0469 15.0511C14.7664 15.3305 14.3861 15.4877 13.9902 15.4877C13.5945 15.4876 13.215 15.3304 12.9346 15.0511C12.654 14.7715 12.4955 14.3916 12.4941 13.9955C12.4929 13.5996 12.6483 13.2193 12.9268 12.9379C13.2054 12.6564 13.5845 12.4962 13.9805 12.4935H14.001ZM7.92773 0.521851C8.07109 0.536451 8.21227 0.569854 8.34668 0.623413C8.53799 0.699655 8.7122 0.813346 8.85938 0.957397C9.00663 1.1016 9.12382 1.27441 9.2041 1.46423C9.26424 1.60651 9.30344 1.75648 9.31934 1.90955L9.32715 2.06384C9.32576 2.86649 8.65476 3.50616 7.74414 3.50623H7.72656L7.70898 3.5072C6.63389 3.58295 5.62097 4.04152 4.85449 4.79919C4.08821 5.55683 3.61842 6.56407 3.53027 7.63806L3.52832 7.65857V7.71326C3.46392 8.88054 3.85481 10.0277 4.62012 10.9125C5.39213 11.805 6.48311 12.36 7.65918 12.4574L7.67969 12.4584H7.72656C8.5881 12.4584 9.24197 13.0201 9.32031 13.7543L9.32812 13.9037C9.32473 14.1059 9.28191 14.3057 9.20215 14.4916C9.12154 14.6795 9.00476 14.8498 8.8584 14.9926C8.71199 15.1353 8.53851 15.2477 8.34863 15.3236C8.15869 15.3995 7.95549 15.4375 7.75098 15.4349H7.63086C4.60541 15.4346 0.500066 12.6461 0.5 7.98279V7.95154C0.514382 6.0368 1.26123 4.20038 2.58691 2.81873C3.82988 1.52335 5.49338 0.719509 7.27246 0.547241L7.62988 0.521851H7.92773ZM12.498 7.65271L12.4971 7.63513C12.3984 6.21164 11.5005 4.64207 9.92969 3.9115C10.0405 3.7909 10.1421 3.66143 10.2305 3.52185C10.5082 3.08297 10.6567 2.57441 10.6582 2.05505V2.05115C10.6562 1.63966 10.5636 1.23483 10.3906 0.863647C11.5811 1.26657 12.6603 1.96277 13.5215 2.89978C14.6485 4.12604 15.3345 5.68911 15.4785 7.34216L15.5 7.67419V11.598C15.468 11.5779 15.4362 11.5574 15.4033 11.5385C14.9781 11.2939 14.4964 11.1636 14.0059 11.1615C13.5154 11.1594 13.0327 11.2849 12.6055 11.5258C12.5689 11.5464 12.5336 11.569 12.498 11.5912V7.65271Z" stroke="#848689"/>
</g>
<defs>
<clipPath id="clip0_20020_60669">
<rect width="16" height="16" fill="white"/>
</clipPath>
</defs>
</svg>
