<svg width="16" height="16" viewBox="0 0 16 16" fill="none" xmlns="http://www.w3.org/2000/svg">
<g clip-path="url(#clip0_20020_60695)">
<path d="M13.751 7.22595C14.1506 6.82635 14.7992 6.82591 15.1992 7.22498V7.22595C15.5993 7.62648 15.5996 8.27453 15.1992 8.67517L8.6748 15.1996C8.27487 15.5995 7.62552 15.5995 7.22559 15.1996C6.82577 14.8 6.82576 14.1515 7.22559 13.7513L13.751 7.22595Z" stroke="#848689"/>
<path d="M7.2264 13.7513C7.62652 13.3512 8.27559 13.3507 8.67583 13.7506C9.07605 14.1509 9.07605 14.8006 8.67583 15.2008C8.27559 15.6007 7.62652 15.6002 7.2264 15.2001C6.82656 14.7999 6.82656 14.1515 7.2264 13.7513Z" stroke="#848689"/>
<path d="M10.5381 4.01282C10.9379 3.61262 11.5866 3.61311 11.9873 4.01379C12.3869 4.41368 12.3869 5.06218 11.9873 5.46204L9.07812 8.37122L7.62891 6.922L10.5381 4.01379V4.01282Z" stroke="#848689"/>
<path d="M8.37012 9.078L5.46191 11.9872C5.06198 12.3871 4.41263 12.3871 4.0127 11.9872C3.61297 11.5873 3.6131 10.9389 4.0127 10.5389L6.9209 7.62976L8.37012 9.078Z" stroke="#848689"/>
<rect x="6.48242" y="6.4679" width="3.05" height="3.05" rx="1.525" fill="#848689"/>
<rect x="7.48242" y="7.4679" width="1" height="1" rx="0.5" fill="white"/>
<path d="M7.3252 0.799927C7.72507 0.400246 8.37354 0.40029 8.77344 0.799927C9.17338 1.19986 9.17338 1.84921 8.77344 2.24915L2.24902 8.77356C1.84909 9.1735 1.19974 9.1735 0.799805 8.77356C0.400168 8.37366 0.400124 7.72519 0.799805 7.32532L7.3252 0.799927Z" stroke="#848689"/>
<path d="M8.04785 0.5C8.61371 0.5 9.07302 0.958607 9.07324 1.52441C9.07324 2.09041 8.61385 2.5498 8.04785 2.5498C7.48204 2.54958 7.02344 2.09027 7.02344 1.52441C7.02366 0.958747 7.48218 0.500227 8.04785 0.5Z" stroke="#848689"/>
</g>
<defs>
<clipPath id="clip0_20020_60695">
<rect width="16" height="16" fill="white"/>
</clipPath>
</defs>
</svg>
