<svg width="16" height="16" viewBox="0 0 16 16" fill="none" xmlns="http://www.w3.org/2000/svg">
<path d="M14.6866 4.6416C14.6866 5.22814 14.2111 5.70362 13.6246 5.70362C13.038 5.70362 12.5625 5.22814 12.5625 4.6416C12.5625 4.05507 13.038 3.57959 13.6246 3.57959C14.2111 3.57959 14.6866 4.05507 14.6866 4.6416Z" stroke="#848689" stroke-width="0.666667" stroke-linecap="round" stroke-linejoin="round"/>
<mask id="mask0_20020_60755" style="mask-type:luminance" maskUnits="userSpaceOnUse" x="11" y="6" width="5" height="7">
<path fill-rule="evenodd" clip-rule="evenodd" d="M11.7045 11.9914C12.0884 12.3379 12.597 12.5487 13.1549 12.5487H13.1652C14.361 12.5487 15.3304 11.5793 15.3304 10.3834V7.24635C15.3304 6.92101 15.0666 6.65723 14.7413 6.65723H11.3047C11.6262 6.66518 11.8805 6.93201 11.873 7.25348V10.8315C11.8824 11.2363 11.8227 11.6268 11.7045 11.9914Z" fill="white"/>
</mask>
<g mask="url(#mask0_20020_60755)">
<path d="M11.7049 11.9913L11.0707 11.7858L10.9375 12.1968L11.2583 12.4863L11.7049 11.9913ZM11.3051 6.65715V5.99048L11.2886 7.3236L11.3051 6.65715ZM11.8734 7.2534L11.207 7.238L11.2068 7.24573V7.2534H11.8734ZM11.8734 10.8314H11.2068V10.8391L11.207 10.8469L11.8734 10.8314ZM13.1553 11.8819C12.7688 11.882 12.4177 11.7366 12.1516 11.4964L11.2583 12.4863C11.76 12.939 12.4262 13.2154 13.1554 13.2153L13.1553 11.8819ZM13.1656 11.8819H13.1553L13.1554 13.2153H13.1656V11.8819ZM14.6642 10.3833C14.6642 11.211 13.9932 11.8819 13.1656 11.8819V13.2153C14.7296 13.2153 15.9975 11.9474 15.9975 10.3833H14.6642ZM14.6642 7.24627V10.3833H15.9975V7.24627H14.6642ZM14.7417 7.3238C14.6989 7.3238 14.6642 7.28913 14.6642 7.24627H15.9975C15.9975 6.55272 15.4352 5.99048 14.7417 5.99048V7.3238ZM11.3051 7.3238H14.7417V5.99048H11.3051V7.3238ZM12.5399 7.26887C12.5559 6.57968 12.0108 6.00774 11.3216 5.99068L11.2886 7.3236C11.2424 7.32247 11.2059 7.28413 11.207 7.238L12.5399 7.26887ZM12.5401 10.8314V7.2534H11.2068V10.8314H12.5401ZM12.3391 12.1969C12.4801 11.7619 12.5511 11.2968 12.5399 10.8159L11.207 10.8469C11.2146 11.1758 11.1661 11.4915 11.0707 11.7858L12.3391 12.1969Z" fill="#848689"/>
</g>
<mask id="mask1_20020_60755" style="mask-type:luminance" maskUnits="userSpaceOnUse" x="7" y="2" width="5" height="5">
<path fill-rule="evenodd" clip-rule="evenodd" d="M10.6339 4.0155C10.6339 4.76045 10.03 5.36434 9.28506 5.36434C9.1192 5.36434 8.96033 5.3344 8.81353 5.27964C8.81773 5.30751 8.81993 5.33603 8.81993 5.36507V5.97707C8.96926 6.01234 9.125 6.03101 9.28506 6.03101C10.3982 6.03101 11.3005 5.12863 11.3005 4.0155C11.3005 2.90237 10.3982 2 9.28506 2C8.17193 2 7.26953 2.90237 7.26953 4.0155C7.26953 4.29251 7.32546 4.55647 7.42653 4.79671H8.18533C8.02846 4.57628 7.9362 4.30666 7.9362 4.0155C7.9362 3.27056 8.54013 2.66667 9.28506 2.66667C10.03 2.66667 10.6339 3.27056 10.6339 4.0155Z" fill="white"/>
</mask>
<g mask="url(#mask1_20020_60755)">
<path d="M8.8122 5.27956L9.04527 4.65495C8.824 4.57239 8.5756 4.61306 8.3922 4.76187C8.2088 4.91067 8.1178 5.14541 8.153 5.37894L8.8122 5.27956ZM8.8186 5.97699H8.15194C8.15194 6.28614 8.36447 6.55473 8.66534 6.6258L8.8186 5.97699ZM7.4252 4.79662L6.81074 5.05523C6.9148 5.30249 7.15694 5.46329 7.4252 5.46329V4.79662ZM8.184 4.79662V5.46329C8.43354 5.46329 8.66214 5.32396 8.77654 5.1022C8.89087 4.88044 8.87187 4.61337 8.7272 4.41008L8.184 4.79662ZM9.28374 6.03092C10.3969 6.03092 11.2992 5.12855 11.2992 4.01542H9.96587C9.96587 4.39217 9.66047 4.69759 9.28374 4.69759V6.03092ZM8.5792 5.90416C8.79934 5.98632 9.03707 6.03092 9.28374 6.03092V4.69759C9.19867 4.69759 9.1186 4.68232 9.04527 4.65495L8.5792 5.90416ZM8.153 5.37894C8.15227 5.37403 8.15194 5.36933 8.15194 5.36499H9.48527C9.48527 5.30258 9.4806 5.24083 9.47147 5.18017L8.153 5.37894ZM8.15194 5.36499V5.97699H9.48527V5.36499H8.15194ZM9.28374 5.36426C9.1756 5.36426 9.07134 5.35167 8.97187 5.32818L8.66534 6.6258C8.86454 6.67285 9.07167 6.69759 9.28374 6.69759V5.36426ZM10.6325 4.01542C10.6325 4.76037 10.0287 5.36426 9.28374 5.36426V6.69759C10.7651 6.69759 11.9659 5.49675 11.9659 4.01542H10.6325ZM9.28374 2.66659C10.0287 2.66659 10.6325 3.27048 10.6325 4.01542H11.9659C11.9659 2.5341 10.7651 1.33325 9.28374 1.33325V2.66659ZM7.93487 4.01542C7.93487 3.27048 8.5388 2.66659 9.28374 2.66659V1.33325C7.8024 1.33325 6.60156 2.5341 6.60156 4.01542H7.93487ZM8.03967 4.53803C7.9724 4.37818 7.93487 4.20203 7.93487 4.01542H6.60156C6.60156 4.38283 6.6758 4.73459 6.81074 5.05523L8.03967 4.53803ZM7.4252 5.46329H8.184V4.12996H7.4252V5.46329ZM7.2682 4.01542C7.2682 4.44963 7.40627 4.85358 7.64087 5.18317L8.7272 4.41008C8.648 4.29881 8.60154 4.16353 8.60154 4.01542H7.2682ZM9.28374 1.99992C8.1706 1.99992 7.2682 2.90229 7.2682 4.01542H8.60154C8.60154 3.63867 8.907 3.33325 9.28374 3.33325V1.99992ZM11.2992 4.01542C11.2992 2.90229 10.3969 1.99992 9.28374 1.99992V3.33325C9.66047 3.33325 9.96587 3.63867 9.96587 4.01542H11.2992Z" fill="#848689"/>
</g>
<mask id="mask2_20020_60755" style="mask-type:luminance" maskUnits="userSpaceOnUse" x="5" y="6" width="8" height="9">
<path fill-rule="evenodd" clip-rule="evenodd" d="M5.78906 11.6185C6.10888 13.1783 7.47026 14.3685 9.12972 14.4091C11.0591 14.3619 12.5855 12.7609 12.5406 10.8315V7.25348C12.548 6.93201 12.2937 6.66518 11.9722 6.65723H8.81959V11.0501C8.81959 11.3579 8.57499 11.6085 8.26952 11.6182C8.26346 11.6184 8.25739 11.6185 8.25126 11.6185C8.25132 11.6185 8.25119 11.6185 8.25126 11.6185H5.78906Z" fill="white"/>
</mask>
<g mask="url(#mask2_20020_60755)">
<path d="M5.78776 11.6184V10.9517C5.58747 10.9517 5.3978 11.0418 5.27118 11.197C5.14458 11.3522 5.09446 11.5561 5.13468 11.7523L5.78776 11.6184ZM9.12842 14.4091L9.11209 15.0755C9.12296 15.0758 9.13389 15.0758 9.14476 15.0755L9.12842 14.4091ZM12.5393 10.8314H11.8726C11.8726 10.8366 11.8727 10.8417 11.8728 10.8469L12.5393 10.8314ZM12.5393 7.2534L11.8728 7.238C11.8727 7.24313 11.8726 7.24827 11.8726 7.2534H12.5393ZM11.9709 6.65715L11.9874 5.99068C11.9819 5.99055 11.9764 5.99048 11.9709 5.99048V6.65715ZM8.81829 6.65715V5.99048C8.45009 5.99048 8.15162 6.28895 8.15162 6.65715H8.81829ZM8.24996 11.6184V10.9517H8.24729L8.24996 11.6184ZM8.24996 11.6184L8.24982 12.2851H8.25249L8.24996 11.6184ZM5.13468 11.7523C5.51548 13.6096 7.13549 15.0272 9.11209 15.0755L9.14476 13.7426C7.80242 13.7097 6.69969 12.7469 6.44084 11.4845L5.13468 11.7523ZM9.14476 15.0755C11.4418 15.0193 13.2592 13.1131 13.2058 10.8159L11.8728 10.8469C11.9091 12.4085 10.6737 13.7044 9.11209 13.7426L9.14476 15.0755ZM13.206 10.8314V7.2534H11.8726V10.8314H13.206ZM13.2058 7.26887C13.2217 6.57969 12.6766 6.00774 11.9874 5.99068L11.9544 7.3236C11.9082 7.32247 11.8717 7.28413 11.8728 7.238L13.2058 7.26887ZM11.9709 5.99048H8.81829V7.3238H11.9709V5.99048ZM8.15162 6.65715V11.0501H9.48496V6.65715H8.15162ZM8.15162 11.0501C8.15162 10.9957 8.19562 10.9517 8.24996 10.9517L8.24982 12.2851C8.93189 12.2851 9.48496 11.7321 9.48496 11.0501H8.15162ZM8.24996 10.9517H5.78776V12.2851H8.24982L8.24996 10.9517Z" fill="#848689"/>
</g>
<path d="M8.25074 4.46338H2.56577C2.06778 4.46338 1.66406 4.86709 1.66406 5.36508V11.05C1.66406 11.548 2.06777 11.9517 2.56577 11.9517H8.25074C8.74874 11.9517 9.1524 11.548 9.1524 11.05V5.36508C9.1524 4.86709 8.74874 4.46338 8.25074 4.46338Z" stroke="#848689" stroke-width="0.666667" stroke-linecap="round" stroke-linejoin="round"/>
<path d="M3.86719 6.78394H5.36718M5.36718 6.78394V10.1173M5.36718 6.78394H6.86717" stroke="#848689" stroke-width="0.666667" stroke-linecap="round" stroke-linejoin="round"/>
</svg>
