<svg width="444" height="96" viewBox="0 0 444 96" fill="none" xmlns="http://www.w3.org/2000/svg">
<path d="M111.693 30.6055V21.6762H152.802V30.6055H136.98V76.9926H127.516V30.6055H111.693Z" fill="white"/>
<path d="M163.515 76.9926L151.685 39.6105H161.075L165.881 55.6531C166.695 58.6043 167.434 61.8582 168.099 65.3391C168.765 61.7069 169.43 59.361 170.613 55.6531L175.641 39.6105H184.809L189.689 55.6531C190.132 57.1665 191.611 62.7663 192.055 65.2634C192.646 62.4636 193.829 57.9989 194.495 55.6531L199.374 39.6105H208.912L196.269 76.9926H187.84L182.813 60.7988C181.334 55.8801 180.521 52.3235 180.225 50.4317C179.855 52.1721 179.19 54.8207 177.341 60.9501L172.314 76.9926H163.515Z" fill="white"/>
<path d="M218.884 32.119C215.779 32.119 213.339 29.6218 213.339 26.5192C213.339 23.4167 215.779 20.9952 218.884 20.9952C221.842 20.9952 224.282 23.4167 224.282 26.5192C224.282 29.6218 221.842 32.119 218.884 32.119ZM214.374 76.9926V39.6105H223.394V76.9926H214.374Z" fill="white"/>
<path d="M241.734 76.9926H232.714V39.6105H241.069L241.808 44.4536C244.1 40.67 248.536 38.4755 253.49 38.4755C262.658 38.4755 267.39 44.3022 267.39 53.9883V76.9926H258.37V56.1828C258.37 49.902 255.338 46.8751 250.68 46.8751C245.135 46.8751 241.734 50.81 241.734 56.8638V76.9926Z" fill="white"/>
<path d="M287.12 77.9762C279.357 77.9762 274.625 73.3602 274.625 66.3227C274.625 59.4365 279.505 55.1232 288.155 54.4422L299.098 53.6098V52.7774C299.098 47.7073 296.14 45.6642 291.556 45.6642C286.233 45.6642 283.276 47.9343 283.276 51.8693H275.586C275.586 43.7724 282.093 38.4753 292 38.4753C301.834 38.4753 307.896 43.9237 307.896 54.2908V76.9925H299.985L299.32 71.4684C297.767 75.3277 292.813 77.9762 287.12 77.9762ZM290.078 71.0144C295.623 71.0144 299.172 67.6091 299.172 61.858V59.8906L291.556 60.4959C285.937 61.0256 283.793 62.9174 283.793 65.9443C283.793 69.3496 286.011 71.0144 290.078 71.0144Z" fill="white"/>
<path d="M325.852 76.9925H316.906V20.6923H325.852V76.9925Z" fill="white"/>
<path d="M332.135 94.3215V86.6029H337.532C341.081 86.6029 343.299 85.7705 344.852 81.3815L345.887 78.5816L331.174 39.6104H340.711L350.101 66.8524L360.009 39.6104H369.325L351.432 85.3164C348.697 92.2783 344.852 95.1538 338.863 95.1538C336.349 95.1538 334.131 94.8512 332.135 94.3215Z" fill="white"/>
<path d="M402.027 76.9925H372.526V69.4253L390.714 47.329H372.526V39.6104H402.027V47.2533L383.543 69.2739H402.027V76.9925Z" fill="white"/>
<path d="M425.302 77.9762C414.433 77.9762 406.817 69.8793 406.817 58.3014C406.817 46.5722 414.285 38.4753 425.006 38.4753C435.948 38.4753 442.898 45.9669 442.898 57.6204V60.4203L415.394 60.4959C416.059 67.0794 419.461 70.409 425.449 70.409C430.403 70.409 433.656 68.4415 434.691 64.8849H443.046C441.494 73.0575 434.839 77.9762 425.302 77.9762ZM425.08 46.0425C419.756 46.0425 416.503 48.9937 415.616 54.5935H433.952C433.952 49.4478 430.477 46.0425 425.08 46.0425Z" fill="white"/>
<path d="M63.5563 23.6923C63.5563 16.2152 69.6177 10.1538 77.0948 10.1538H84.6161V67.6923C84.6161 75.1694 78.5548 81.2308 71.0777 81.2308H60.9238L61.7031 79.5339C62.9242 76.8752 63.5563 73.9841 63.5563 71.0585V23.6923Z" fill="#3066FB"/>
<path d="M36.4782 44C36.4782 36.5229 42.5396 30.4615 50.0166 30.4615H57.538V67.6923C57.538 75.1694 51.4766 81.2308 43.9996 81.2308H33.8457C35.5644 78.5577 36.4782 75.4468 36.4782 72.2689V44Z" fill="#678FFC"/>
<path d="M6.76953 69.3846C6.76953 62.8422 12.0732 57.5385 18.6157 57.5385H30.4618V69.3846C30.4618 75.9271 25.1581 81.2308 18.6157 81.2308C12.0732 81.2308 6.76953 75.9271 6.76953 69.3846Z" fill="#93AFFD"/>
</svg>
