<svg width="119" height="26" viewBox="0 0 119 26" fill="none" xmlns="http://www.w3.org/2000/svg">
<path d="M29.7773 8.05678V5.67626H40.7367V8.05678H36.5186V20.4234H33.9955V8.05678H29.7773Z" fill="#0F2359"/>
<path d="M43.5929 20.4234L40.4391 10.4575H42.9424L44.2236 14.7344C44.4404 15.5211 44.6375 16.3886 44.8149 17.3166C44.9923 16.3483 45.1697 15.7229 45.4851 14.7344L46.8255 10.4575H49.2697L50.5706 14.7344C50.6889 15.1378 51.0831 16.6307 51.2014 17.2964C51.3591 16.55 51.6744 15.3597 51.8518 14.7344L53.1528 10.4575H55.6955L52.3249 20.4234H50.0778L48.7375 16.1062C48.3432 14.7949 48.1264 13.8467 48.0476 13.3424C47.949 13.8064 47.7716 14.5124 47.2788 16.1465L45.9385 20.4234H43.5929Z" fill="#0F2359"/>
<path d="M58.354 8.46026C57.5262 8.46026 56.8757 7.79452 56.8757 6.96739C56.8757 6.14026 57.5262 5.49469 58.354 5.49469C59.1425 5.49469 59.793 6.14026 59.793 6.96739C59.793 7.79452 59.1425 8.46026 58.354 8.46026ZM57.1517 20.4234V10.4575H59.5564V20.4234H57.1517Z" fill="#0F2359"/>
<path d="M64.4457 20.4234H62.041V10.4575H64.2683L64.4654 11.7486C65.0765 10.7399 66.2591 10.1549 67.5798 10.1549C70.024 10.1549 71.2855 11.7083 71.2855 14.2905V20.4234H68.8807V14.8756C68.8807 13.2011 68.0726 12.3942 66.8308 12.3942C65.3524 12.3942 64.4457 13.4432 64.4457 15.0571V20.4234Z" fill="#0F2359"/>
<path d="M76.546 20.6856C74.4764 20.6856 73.2148 19.455 73.2148 17.5788C73.2148 15.743 74.5158 14.5931 76.822 14.4115L79.7392 14.1896V13.9677C79.7392 12.616 78.9508 12.0713 77.7287 12.0713C76.3095 12.0713 75.521 12.6766 75.521 13.7256H73.4711C73.4711 11.567 75.2057 10.1548 77.847 10.1548C80.4686 10.1548 82.0849 11.6073 82.0849 14.3712V20.4234H79.9758L79.7984 18.9507C79.3844 19.9795 78.0638 20.6856 76.546 20.6856ZM77.3345 18.8296C78.8128 18.8296 79.7589 17.9218 79.7589 16.3886V15.864L77.7287 16.0254C76.2307 16.1667 75.659 16.671 75.659 17.478C75.659 18.3858 76.2504 18.8296 77.3345 18.8296Z" fill="#0F2359"/>
<path d="M86.8717 20.4234H84.4867V5.41394H86.8717V20.4234Z" fill="#0F2359"/>
<path d="M88.5467 25.0432V22.9854H89.9856C90.9318 22.9854 91.5231 22.7635 91.937 21.5934L92.213 20.847L88.2905 10.4574H90.8332L93.3365 17.72L95.9778 10.4574H98.4614L93.6913 22.6425C92.962 24.4985 91.9371 25.2651 90.3405 25.2651C89.6703 25.2651 89.0789 25.1844 88.5467 25.0432Z" fill="#0F2359"/>
<path d="M107.18 20.4234H99.3149V18.406L104.164 12.5152H99.3149V10.4574H107.18V12.495L102.252 18.3656H107.18V20.4234Z" fill="#0F2359"/>
<path d="M113.385 20.6856C110.487 20.6856 108.457 18.527 108.457 15.4404C108.457 12.3134 110.448 10.1548 113.306 10.1548C116.223 10.1548 118.076 12.152 118.076 15.2588V16.0053L110.743 16.0254C110.921 17.7806 111.827 18.6682 113.424 18.6682C114.745 18.6682 115.612 18.1437 115.888 17.1955H118.115C117.701 19.3743 115.927 20.6856 113.385 20.6856ZM113.325 12.1722C111.906 12.1722 111.039 12.959 110.802 14.4519H115.691C115.691 13.08 114.764 12.1722 113.325 12.1722Z" fill="#0F2359"/>
<path d="M16.944 6.6837C16.944 4.69034 18.5599 3.0744 20.5533 3.0744H22.5585V18.4139C22.5585 20.4073 20.9425 22.0232 18.9492 22.0232H16.2422L16.45 21.5709C16.7755 20.8621 16.944 20.0913 16.944 19.3113V6.6837Z" fill="#3066FB"/>
<path d="M9.72525 12.0976C9.72525 10.1043 11.3412 8.48834 13.3345 8.48834H15.3397V18.4139C15.3397 20.4073 13.7238 22.0232 11.7304 22.0232H9.02344C9.48163 21.3106 9.72525 20.4812 9.72525 19.634V12.0976Z" fill="#678FFC"/>
<path d="M1.80469 18.8651C1.80469 17.1209 3.21864 15.707 4.96283 15.707H8.12097V18.8651C8.12097 20.6093 6.70702 22.0232 4.96283 22.0232C3.21863 22.0232 1.80469 20.6093 1.80469 18.8651Z" fill="#93AFFD"/>
</svg>
