<svg width="24" height="24" viewBox="0 0 256 256" xmlns="http://www.w3.org/2000/svg">
  <path d="M122.163 0.41C125.85 0.102 129.434 0 133.12 0C199.782 2.458 253.338 55.91 256 122.573V223.232C255.898 241.459 241.05 256.102 222.925 256C206.336 253.44 193.638 239.923 192.102 223.232V122.573C189.338 87.45 158.618 61.133 123.494 63.898C123.085 63.898 122.675 64 122.266 64" fill="#FBBC04"></path>
  <path d="M256 223.949C256 241.562 241.664 255.898 224.051 255.898C206.438 255.898 192.102 241.562 192.102 223.949C192.102 206.336 206.438 192 224.051 192C241.664 192 256 206.336 256 223.949Z" fill="#4285F4"></path>
  <path d="M124.006 254.874C142.131 255.078 156.979 240.64 157.184 222.515C157.184 204.698 141.926 190.771 124.314 191.283C88.678 188.621 62.362 158.31 64.819 123.29V122.778C67.379 91.238 92.467 66.355 124.006 64C141.619 64.717 156.467 50.995 157.184 33.382C156.979 14.746 142.131 0.102 124.006 0.305H121.754C53.862 3.482 0.41 59.187 0 127.181V127.693C0 207.462 69.939 254.976 122.061 254.976H124.006V254.874Z" fill="#EA4335"></path>
</svg>