<svg width="24" height="24" viewBox="0 0 512 512" xmlns="http://www.w3.org/2000/svg">
  <path fill="#4D6FA9" d="M476.69 512H35.31C15.89 512 0 496.11 0 476.69V35.31C0 15.89 15.89 0 35.31 0H476.69C496.11 0 512 15.89 512 35.31V476.69C512 496.11 496.11 512 476.69 512Z"></path>
  <path fill="#FFFFFF" d="M432.552 88.276V176.552H353.104C343.394 176.552 335.449 184.497 335.449 194.207V247.173H423.725V335.449H335.449V512H247.173V335.448H176.552V247.172H247.173V194.206C247.173 138.592 289.545 92.689 344.276 88.275H432.552Z"></path>
</svg>