<svg width="24" height="24" viewBox="-47.5 0 351 351" xmlns="http://www.w3.org/2000/svg">
  <path d="M0 282.998L2.123 280.026L102.527 89.512L102.739 87.495L58.479 4.358C54.771-2.606 44.331-0.845 43.114 6.951L0 282.998Z" fill="#FFC24A"></path>
  <path d="M1.253 280.732L2.858 277.601L102.211 89.083L58.061 5.608C54.392-1.283 45.074 0.474 43.87 8.188L1.253 280.732Z" fill="#FFA712"></path>
  <path d="M135.005 150.381L167.96 116.629L134.995 53.699C131.866 47.743 123.129 47.725 120.033 53.699L102.421 87.288V90.149L135.005 150.381Z" fill="#F4BD62"></path>
  <path d="M135.005 150.381L167.96 116.629L134.995 53.699C131.866 47.743 123.129 47.725 120.033 53.699L102.421 87.288V90.149L135.005 150.381Z" fill="#FFA50E"></path>
  <path d="M0 282.998L0.962 282.03L4.458 280.61L132.935 152.61L134.563 148.179L102.513 87.105L0 282.998Z" fill="#F6820C"></path>
  <path d="M139.121 347.551L255.396 282.704L222.192 78.209C221.153 71.811 213.304 69.282 208.724 73.869L0 282.998L115.608 347.546C122.915 351.625 131.813 351.627 139.121 347.551Z" fill="#FDE068"></path>
  <path d="M254.354 282.16L221.402 79.218C220.371 72.868 213.844 70.241 209.299 74.794L1.289 282.601L115.628 346.509C122.879 350.558 131.709 350.56 138.962 346.515L254.354 282.16Z" fill="#FCCA3F"></path>
  <path d="M139.121 345.641C131.813 349.716 122.915 349.715 115.608 345.635L0.931 282.015L0 282.998L115.608 347.546C122.915 351.625 131.813 351.627 139.121 347.551L255.396 282.704L255.111 280.952L139.121 345.641Z" fill="#EEAB37"></path>
</svg>