<svg width="24" height="24" viewBox="0 0 24 24" fill="#6264A7" xmlns="http://www.w3.org/2000/svg">
  <path d="M20.625 8.127c-1.45 0-2.625-1.175-2.625-2.625s1.175-2.625 2.625-2.625S23.25 4.052 23.25 5.502s-1.175 2.625-2.625 2.625zM24 10.002v5.578c0 2.07-1.68 3.75-3.75 3.75-.615 0-1.23-.15-1.758-.434-.293.95-.855 1.729-1.319 2.065-.756.557-1.67.861-2.898.861-2.4 0-4.395-1.7-4.853-3.945h-5.8c-.41 0-.703-.293-.703-.703V6.873c0-.41.293-.703.703-.703h8.59c-.22-.46-.34-.97-.34-1.5 0-1.935 1.565-3.5 3.5-3.5s3.5 1.565 3.5 3.5-1.565 3.5-3.5 3.5c-.25 0-.5-.025-.75-.08v1.078h10.875c.469 0 .797.328.797.834zM6.937 9.814h2.25V7.94H2.814v1.875h2.25v6h1.875v-6zm10.313 7.313v-6.75H12v6.504c0 .41-.293.703-.703.703H8.309c.61 2.13 2.355 3.75 4.441 3.75 2.485 0 4.5-1.985 4.5-4.207zm5.25-1.547v-5.203h-3.75v6.855c.375.375.9.598 1.5.598 1.245 0 2.25-1.005 2.25-2.25z"></path>
</svg>