<svg width="24" height="24" viewBox="0 -10 256 256" xmlns="http://www.w3.org/2000/svg">
  <path d="M128.344 0C57.581 0 0 57.581 0 128.344C0 173.438 23.588 212.981 58.275 235.875C77.006 223.388 98.513 216.45 117.244 215.063V138.75H110.306V124.875H144.994V216.45C164.419 219.225 181.763 226.163 197.719 235.875C233.1 212.981 255.994 173.438 255.994 128.344C256.688 57.581 199.106 0 128.344 0ZM166.5 128.344C166.5 107.531 149.156 90.188 128.344 90.188C107.531 90.188 90.188 107.531 90.188 128.344C90.188 142.913 98.513 156.094 111 162.338V169.969C95.044 163.031 83.25 147.075 83.25 128.344C83.25 103.369 103.369 83.25 128.344 83.25C153.319 83.25 173.438 103.369 173.438 128.344C173.438 144.3 165.113 158.175 152.625 166.5V158.175C160.95 150.544 166.5 140.138 166.5 128.344ZM152.625 203.963V196.331C181.069 186.619 201.188 159.563 201.188 127.65C201.188 88.106 168.581 55.5 128.344 55.5C88.106 55.5 55.5 88.106 55.5 128.344C55.5 162.338 79.088 191.475 111 199.106V206.044C75.619 198.413 48.563 166.5 48.563 128.344C48.563 83.944 83.944 48.563 128.344 48.563C172.744 48.563 208.125 83.944 208.125 128.344C208.125 163.725 184.538 194.25 152.625 203.963Z" fill="#E54B4B"></path>
</svg>