<svg width="16" height="16" viewBox="0 0 16 16" fill="none" xmlns="http://www.w3.org/2000/svg">
<path d="M12.9708 5.57933C12.6121 5.08067 11.7854 4.056 10.5168 2.53333C9.96611 1.87267 9.49345 1.312 9.26078 1.03667C9.15267 0.908387 9.04422 0.780386 8.93545 0.652667L8.79745 0.489333L8.72211 0.400667L8.70745 0.379333L8.70078 0.376L8.38078 0L7.97478 0.325333C6.93811 1.156 6.08945 2.226 5.52078 3.41867C5.17211 4.128 4.94478 4.822 4.82545 5.536C4.79411 5.69667 4.76678 5.862 4.74478 6.028C4.60545 6.01667 4.46411 6.00933 4.32345 6.006C4.31145 6.00533 4.30011 6.00467 4.28411 6.004C3.77106 5.98607 3.25832 6.04769 2.76411 6.18667L2.55278 6.246L2.44411 6.43667C1.93411 7.33133 1.64545 8.34933 1.60945 9.38067C1.56278 10.7207 1.92745 12.0167 2.66478 13.1307C3.38611 14.2193 4.40478 15.052 5.61145 15.538L5.76878 15.6013L5.81611 15.618L5.81811 15.6173C6.4478 15.8455 7.10942 15.9733 7.77878 15.996C7.85478 15.9987 7.93078 16 8.00678 16C8.85545 16 9.68211 15.834 10.4668 15.5053L10.4721 15.508L10.6808 15.4113C11.7392 14.9217 12.6442 14.1531 13.2988 13.188C13.9721 12.1947 14.3501 11.032 14.3928 9.82667C14.4428 8.386 13.9641 6.95733 12.9708 5.57933ZM8.24878 10.0427C8.46745 10.872 8.42478 11.6693 8.12145 12.4147C7.36478 11.668 6.81011 10.8467 6.47145 9.97133C6.10945 9.03533 5.89145 8.14467 5.82211 7.32133C6.14211 7.426 6.43678 7.56533 6.69878 7.736C7.45345 8.22733 7.97478 9.00333 8.24878 10.0427ZM8.38678 14.0573C8.70811 14.3027 9.04678 14.532 9.39545 14.7427C8.88145 14.8827 8.35211 14.944 7.81611 14.9247C7.73312 14.9217 7.65021 14.9168 7.56745 14.91C7.87278 14.6473 8.14678 14.3613 8.38611 14.0573H8.38678ZM9.28478 9.77C8.94078 8.46533 8.26678 7.47867 7.28345 6.838C6.85211 6.55733 6.36011 6.344 5.82078 6.20467C5.82811 6.11533 5.83811 6.026 5.84945 5.938C5.85878 5.86267 5.86945 5.794 5.88011 5.72933C5.96878 5.27 6.10145 4.816 6.27278 4.37933C6.33878 4.21267 6.41011 4.04667 6.48678 3.886L6.48945 3.88067C6.60745 3.642 6.74011 3.40133 6.89611 3.144L6.95745 3.04267L6.95545 3.042C7.31811 2.47467 7.75345 1.95733 8.25011 1.50133L8.44211 1.72867C8.89011 2.25933 9.31145 2.76067 9.69411 3.22C10.5548 4.25267 11.6714 5.60867 12.1021 6.20667C12.9534 7.38733 13.3641 8.59267 13.3221 9.79C13.2894 10.72 13.0148 11.6267 12.5254 12.412C12.0628 13.156 11.4181 13.7787 10.6588 14.2173C10.2348 14.0053 9.61945 13.658 8.96611 13.1513C9.49278 12.1013 9.60078 10.9647 9.28545 9.77H9.28478ZM7.56811 13.368C7.08478 13.994 6.51011 14.4013 6.17478 14.6053C6.12078 14.586 6.06611 14.5653 6.01278 14.5433L5.96945 14.526C4.97611 14.1153 4.13811 13.422 3.54611 12.5193C2.94145 11.5967 2.64211 10.524 2.68078 9.41733C2.70811 8.624 2.90611 7.866 3.26878 7.16467C3.47945 7.118 3.69411 7.08867 3.90878 7.07733L3.96478 7.076C4.07278 7.074 4.18078 7.074 4.28345 7.076C4.43478 7.08333 4.58611 7.09933 4.73478 7.12267C4.78345 8.13133 5.03145 9.21933 5.47145 10.3573C5.89611 11.4533 6.60078 12.4653 7.56745 13.3673L7.56811 13.368Z" fill="#848689"/>
</svg>
