<svg width="16" height="16" viewBox="0 0 16 16" fill="none" xmlns="http://www.w3.org/2000/svg">
<path d="M13.401 7.99994C13.6143 7.87215 13.7979 7.70033 13.9396 7.49596C14.0813 7.29159 14.1778 7.05936 14.2227 6.81476C14.2675 6.57015 14.2597 6.31879 14.1997 6.07745C14.1398 5.8361 14.029 5.61031 13.8749 5.41514C13.7208 5.21997 13.5268 5.05991 13.306 4.94562C13.0851 4.83133 12.8424 4.76544 12.5941 4.75236C12.3457 4.73927 12.0975 4.77929 11.8658 4.86973C11.6341 4.96018 11.4244 5.09897 11.2507 5.27687V3.49994C11.2508 3.11725 11.1254 2.74509 10.8937 2.44048C10.6621 2.13586 10.337 1.9156 9.96816 1.81344C9.59936 1.71127 9.20724 1.73284 8.85187 1.87484C8.49651 2.01685 8.1975 2.27144 8.00067 2.59963C7.87287 2.38629 7.70106 2.20266 7.49669 2.06097C7.29232 1.91928 7.06008 1.8228 6.81548 1.77795C6.57087 1.7331 6.31952 1.74092 6.07817 1.80089C5.83683 1.86085 5.61105 1.97159 5.41588 2.1257C5.22071 2.27982 5.06064 2.47378 4.94635 2.69464C4.83206 2.91551 4.76618 3.1582 4.75309 3.40654C4.74 3.65488 4.78002 3.90315 4.87046 4.1348C4.9609 4.36646 5.09969 4.57616 5.27758 4.74994H3.50067C3.11798 4.74985 2.74582 4.87523 2.4412 5.10688C2.13659 5.33852 1.91633 5.66365 1.81416 6.03245C1.712 6.40125 1.73357 6.79337 1.87558 7.14874C2.01758 7.5041 2.27218 7.80311 2.60037 7.99994C2.38703 8.12773 2.2034 8.29955 2.06171 8.50392C1.92002 8.70829 1.82353 8.94052 1.77868 9.18512C1.73383 9.42973 1.74165 9.68108 1.80162 9.92243C1.86158 10.1638 1.97232 10.3896 2.12643 10.5847C2.28055 10.7799 2.47451 10.94 2.69537 11.0543C2.91623 11.1685 3.15893 11.2344 3.40727 11.2475C3.6556 11.2606 3.90388 11.2206 4.13553 11.1301C4.36718 11.0397 4.57689 10.9009 4.75067 10.723V12.4999C4.75058 12.8826 4.87596 13.2548 5.1076 13.5594C5.33925 13.864 5.66438 14.0843 6.03317 14.1864C6.40197 14.2886 6.79409 14.267 7.14946 14.125C7.50483 13.983 7.80383 13.7284 8.00067 13.4003C8.12846 13.6136 8.30028 13.7972 8.50465 13.9389C8.70902 14.0806 8.94125 14.1771 9.18585 14.2219C9.43046 14.2668 9.68181 14.259 9.92316 14.199C10.1645 14.139 10.3903 14.0283 10.5855 13.8742C10.7806 13.7201 10.9407 13.5261 11.055 13.3052C11.1693 13.0844 11.2352 12.8417 11.2482 12.5933C11.2613 12.345 11.2213 12.0967 11.1309 11.8651C11.0404 11.6334 10.9016 11.4237 10.7237 11.2499H12.5007C12.8834 11.25 13.2555 11.1246 13.5601 10.893C13.8647 10.6614 14.085 10.3362 14.1872 9.96743C14.2893 9.59863 14.2678 9.20651 14.1258 8.85114C13.9838 8.49578 13.7292 8.19677 13.401 7.99994ZM12.5007 5.24994C12.8322 5.24994 13.1501 5.38164 13.3845 5.61606C13.619 5.85048 13.7507 6.16842 13.7507 6.49994C13.7507 6.83146 13.619 7.1494 13.3845 7.38382C13.1501 7.61824 12.8322 7.74994 12.5007 7.74994H11.2507V6.49994C11.251 6.16853 11.3828 5.8508 11.6172 5.61646C11.8515 5.38212 12.1693 5.25031 12.5007 5.24994ZM10.7237 7.74994C10.7328 7.74106 10.7418 7.73209 10.7507 7.72302V7.74994H10.7237ZM9.50067 2.24994C9.83207 2.25031 10.1498 2.38212 10.3841 2.61646C10.6185 2.8508 10.7503 3.16853 10.7507 3.49994V6.49994C10.7503 6.83135 10.6185 7.14908 10.3841 7.38342C10.1498 7.61776 9.83207 7.74957 9.50067 7.74994H8.25067V3.49994C8.25104 3.16853 8.38285 2.8508 8.61719 2.61646C8.85153 2.38212 9.16926 2.25031 9.50067 2.24994ZM8.25067 10.723C8.25955 10.7321 8.26852 10.7411 8.27758 10.7499H8.25067V10.723ZM7.75067 5.27686C7.74179 5.26779 7.73281 5.25882 7.72375 5.24994H7.75067V5.27686ZM5.25067 3.49994C5.25067 3.16842 5.38236 2.85048 5.61678 2.61606C5.8512 2.38164 6.16915 2.24994 6.50067 2.24994C6.83219 2.24994 7.15013 2.38164 7.38455 2.61606C7.61897 2.85048 7.75067 3.16842 7.75067 3.49994V4.74994H6.50067C6.16926 4.74957 5.85153 4.61776 5.61719 4.38342C5.38285 4.14908 5.25104 3.83135 5.25067 3.49994ZM2.25067 6.49994C2.25104 6.16853 2.38285 5.8508 2.61719 5.61646C2.85153 5.38212 3.16926 5.25031 3.50067 5.24994H6.50067C6.83207 5.25031 7.1498 5.38212 7.38414 5.61646C7.61848 5.8508 7.7503 6.16853 7.75067 6.49994V7.74994H3.50067C3.16926 7.74957 2.85153 7.61776 2.61719 7.38342C2.38285 7.14908 2.25104 6.83135 2.25067 6.49994ZM5.27758 8.24994C5.26852 8.25882 5.25955 8.26779 5.25067 8.27686V8.24994H5.27758ZM3.50067 10.7499C3.16915 10.7499 2.8512 10.6182 2.61678 10.3838C2.38236 10.1494 2.25067 9.83146 2.25067 9.49994C2.25067 9.16842 2.38236 8.85048 2.61678 8.61606C2.8512 8.38164 3.16915 8.24994 3.50067 8.24994H4.75067V9.49994C4.7503 9.83135 4.61848 10.1491 4.38414 10.3834C4.1498 10.6178 3.83207 10.7496 3.50067 10.7499ZM6.50067 13.7499C6.16926 13.7496 5.85153 13.6178 5.61719 13.3834C5.38285 13.1491 5.25104 12.8313 5.25067 12.4999V9.49994C5.25104 9.16853 5.38285 8.8508 5.61719 8.61646C5.85153 8.38212 6.16926 8.25031 6.50067 8.24994H7.75067V12.4999C7.7503 12.8313 7.61848 13.1491 7.38414 13.3834C7.1498 13.6178 6.83207 13.7496 6.50067 13.7499ZM10.7507 12.4999C10.7507 12.8315 10.619 13.1494 10.3845 13.3838C10.1501 13.6182 9.83219 13.7499 9.50067 13.7499C9.16915 13.7499 8.8512 13.6182 8.61678 13.3838C8.38236 13.1494 8.25067 12.8315 8.25067 12.4999V11.2499H9.50067C9.83207 11.2503 10.1498 11.3821 10.3841 11.6165C10.6185 11.8508 10.7503 12.1685 10.7507 12.4999ZM12.5007 10.7499H9.50067C9.16926 10.7496 8.85153 10.6178 8.61719 10.3834C8.38285 10.1491 8.25104 9.83135 8.25067 9.49994V8.24994H12.5007C12.8322 8.24994 13.1501 8.38164 13.3845 8.61606C13.619 8.85048 13.7507 9.16842 13.7507 9.49994C13.7507 9.83146 13.619 10.1494 13.3845 10.3838C13.1501 10.6182 12.8322 10.7499 12.5007 10.7499Z" fill="#848689"/>
</svg>
