<svg xmlns="http://www.w3.org/2000/svg" width="20" height="20" viewBox="0 0 24 24" fill="currentColor">
  <path d="M16.37 12.32c.02 2.14 1.88 2.85 1.9 2.86-.02.05-.3 1.02-.98 2.02-.59.86-1.2 1.72-2.16 1.74-.94.02-1.24-.56-2.31-.56-1.07 0-1.41.54-2.29.58-.92.04-1.62-.92-2.21-1.77-1.2-1.74-2.12-4.92-.88-7.08.61-1.07 1.7-1.75 2.89-1.77.9-.02 1.75.61 2.31.61.56 0 1.61-.76 2.72-.65.46.02 1.76.19 2.6 1.42-.07.04-1.55.9-1.53 2.6ZM14.3 6.02c.49-.59.82-1.41.73-2.22-.71.03-1.57.47-2.08 1.06-.46.53-.86 1.37-.75 2.18.79.06 1.6-.4 2.1-1.02Z"></path>
</svg>