<svg width="29" height="28" viewBox="0 0 29 28" fill="none" xmlns="http://www.w3.org/2000/svg">
<g clip-path="url(#clip0_17039_41081)">
<path d="M24.4606 19.6016C22.7553 19.6016 21.3672 20.9897 21.3672 22.6949C21.3672 24.4003 22.7553 25.7884 24.4606 25.7884C26.1659 25.7884 27.554 24.4003 27.554 22.6949C27.554 20.9942 26.1659 19.6016 24.4606 19.6016ZM26.29 22.6996C26.29 23.7108 25.4672 24.5289 24.4606 24.5289C23.4494 24.5289 22.6312 23.7062 22.6312 22.6996C22.6312 21.6883 23.454 20.8701 24.4606 20.8701C25.4672 20.8701 26.29 21.6883 26.29 22.6996Z" fill="black"/>
<path d="M3.50747 19.6016C1.80218 19.6016 0.414062 20.9897 0.414062 22.6949C0.414062 24.4003 1.80218 25.7884 3.50747 25.7884C5.21275 25.7884 6.60087 24.4003 6.60087 22.6949C6.60087 20.9942 5.21275 19.6016 3.50747 19.6016ZM5.33685 22.6996C5.33685 23.7108 4.51409 24.5289 3.50747 24.5289C2.49625 24.5289 1.67808 23.7062 1.67808 22.6996C1.67808 21.6883 2.50085 20.8701 3.50747 20.8701C4.51409 20.8701 5.33685 21.6883 5.33685 22.6996Z" fill="black"/>
<path d="M13.984 2.64844C12.2787 2.64844 10.8906 4.03656 10.8906 5.74185C10.8906 7.44712 12.2787 8.83525 13.984 8.83525C15.6893 8.83525 17.0774 7.44712 17.0774 5.74185C17.0774 4.03656 15.6893 2.64844 13.984 2.64844ZM15.8134 5.74644C15.8134 6.75766 14.9906 7.57583 13.984 7.57583C12.9728 7.57583 12.1547 6.75306 12.1547 5.74644C12.1547 4.73522 12.9774 3.91704 13.984 3.91704C14.9952 3.91246 15.8134 4.73522 15.8134 5.74644Z" fill="black"/>
<path d="M23.3174 19.9476L16.4825 7.64295L16.4181 7.52344L16.3307 7.62915C16.0963 7.92333 15.8068 8.15774 15.4805 8.33701L15.3977 8.38297L15.4437 8.46571L21.4926 19.3593C19.3828 18.8859 16.7583 18.6285 14.0693 18.6285C11.1046 18.6285 8.47083 18.8813 6.43004 19.3547L12.479 8.46571L12.525 8.38297L12.4422 8.33701C12.1112 8.16235 11.8262 7.92333 11.5918 7.62915L11.5045 7.52344L11.4402 7.64295L4.60984 19.9476L4.55469 20.0441L4.65581 20.0809C4.99135 20.1958 5.29931 20.6141 5.5705 20.8531L5.61646 20.8945L5.67163 20.8669L5.69461 20.8623C7.87329 20.2602 10.7737 19.9384 14.074 19.9384C17.0432 19.9384 19.9252 20.2648 22.1958 20.8577L22.2418 20.945L22.3291 20.8761L22.3475 20.8623C22.6233 20.6187 22.9312 20.2004 23.2668 20.0855L23.3679 20.0487L23.3174 19.9476Z" fill="black"/>
</g>
<defs>
<clipPath id="clip0_17039_41081">
<rect width="27.8372" height="23.4419" fill="white" transform="translate(0 2.60156)"/>
</clipPath>
</defs>
</svg>
