<svg xmlns="http://www.w3.org/2000/svg" width="64" height="64" viewBox="0 0 64 64" fill="none">
  <rect width="64" height="64" rx="18" fill="#EEF2FF"></rect>

  <path d="M45.5 20.8C42.9 19.6 40.1 18.8 37.2 18.4C36.9 19 36.5 19.8 36.3 20.4C33.2 20 30.1 20 27 20.4C26.7 19.8 26.4 19 26 18.4C23.1 18.8 20.3 19.7 17.7 20.8C12.5 28.6 11.1 36.2 11.8 43.7C15.3 46.3 18.7 47.9 22 49C22.8 47.9 23.6 46.7 24.2 45.5C23 45.1 21.8 44.5 20.7 43.8C21 43.6 21.2 43.4 21.5 43.2C28.3 46.4 35.6 46.4 42.3 43.2C42.6 43.4 42.8 43.6 43.1 43.8C42 44.5 40.8 45.1 39.6 45.5C40.2 46.7 41 47.9 41.8 49C45.1 47.9 48.5 46.3 52 43.7C52.8 35 50.6 27.5 45.5 20.8Z" fill="#5865F2"></path>

  <circle cx="25.5" cy="34" r="3.2" fill="white"></circle>
  <circle cx="38.5" cy="34" r="3.2" fill="white"></circle>

  <path d="M24 41C29 43.3 35 43.3 40 41" stroke="white" stroke-width="2.2" stroke-linecap="round"></path>
</svg>