<svg width="36" height="36" viewBox="0 0 36 36" fill="none" xmlns="http://www.w3.org/2000/svg">
<g clip-path="url(#clip0_19835_112138)">
<path d="M28.5779 8.32029C26.6264 7.4254 24.553 6.77457 22.3738 6.3922C22.3332 6.3922 22.2925 6.3922 22.2762 6.44101C22.0079 6.921 21.7071 7.53929 21.5038 8.02742C19.1457 7.67759 16.8284 7.67759 14.5354 8.02742C14.3239 7.52302 14.0231 6.91287 13.7222 6.44101C13.6978 6.40847 13.6653 6.38407 13.6247 6.3922C11.7545 6.76643 9.36392 7.4498 7.44496 8.32029C7.42869 8.32029 7.41243 8.33656 7.4043 8.35283C3.42002 14.2917 2.36296 19.9864 2.93214 25.6812C2.93214 25.7056 2.94841 25.7382 2.9728 25.7626C5.57478 27.6825 8.09545 28.854 10.5836 29.6106C10.6243 29.6106 10.6649 29.6106 10.6893 29.5781C11.2747 28.7808 11.7951 27.9347 12.2505 27.0398C12.2749 26.991 12.2505 26.9259 12.1936 26.9097C11.3805 26.5843 10.5673 26.21 9.81113 25.7707C9.75421 25.7382 9.74608 25.6487 9.81113 25.608C9.97376 25.486 10.1364 25.3639 10.2827 25.2419C10.3071 25.2175 10.3478 25.2175 10.3803 25.2256C15.3729 27.5036 20.7882 27.5036 25.667 25.2256C25.6995 25.2094 25.7401 25.2175 25.7645 25.2338C25.919 25.3639 26.0735 25.486 26.2361 25.608C26.2931 25.6487 26.2849 25.7382 26.2361 25.7707C25.4799 26.2182 24.6912 26.5843 23.8537 26.9097C23.7968 26.9341 23.7724 26.991 23.8049 27.048C24.2603 27.9429 24.7888 28.7808 25.3498 29.5699C25.3742 29.6025 25.4149 29.6188 25.4555 29.6025C27.9437 28.8296 30.4725 27.6663 33.0826 25.7544C33.107 25.7382 33.1233 25.7138 33.1233 25.6731C33.7575 19.0916 32.0581 13.3886 28.6186 8.3447C28.6186 8.32843 28.5942 8.31215 28.5779 8.31215V8.32029ZM12.966 22.2318C11.4211 22.2318 10.2014 20.8488 10.2014 19.1404C10.2014 17.4319 11.4211 16.0489 12.966 16.0489C14.511 16.0489 15.7306 17.4319 15.7306 19.1404C15.7306 20.8488 14.511 22.2318 12.966 22.2318ZM23.13 22.2318C21.5851 22.2318 20.3654 20.8488 20.3654 19.1404C20.3654 17.4319 21.5851 16.0489 23.13 16.0489C24.6749 16.0489 25.8946 17.4319 25.8946 19.1404C25.8946 20.8488 24.6749 22.2318 23.13 22.2318Z" fill="#5865F2"/>
</g>
<defs>
<clipPath id="clip0_19835_112138">
<rect width="36" height="36" fill="white"/>
</clipPath>
</defs>
</svg>
