<svg width="28" height="28" viewBox="0 0 28 28" fill="none" xmlns="http://www.w3.org/2000/svg">
<g clip-path="url(#clip0_17039_61789)">
<path d="M2.96494 17.2349C2.96494 18.283 3.19499 19.0877 3.49569 19.5746C3.88993 20.2122 4.47795 20.4824 5.07743 20.4824C5.85065 20.4824 6.55799 20.2905 7.92114 18.4052C9.01318 16.8941 10.3 14.773 11.1658 13.4433L12.632 11.1905C13.6506 9.62589 14.8295 7.88664 16.1812 6.70773C17.2847 5.7455 18.475 5.21094 19.673 5.21094C21.6843 5.21094 23.6002 6.37648 25.0664 8.56248C26.6711 10.9566 27.45 13.9721 27.45 17.0841C27.45 18.934 27.0854 20.2934 26.4649 21.3673C25.8654 22.4059 24.697 23.4435 22.7315 23.4435V20.4824C24.4144 20.4824 24.8345 18.9359 24.8345 17.1661C24.8345 14.6441 24.2464 11.8453 22.9511 9.84544C22.0318 8.42693 20.8405 7.56017 19.5298 7.56017C18.1123 7.56017 16.9716 8.6293 15.6895 10.5356C15.008 11.5484 14.3083 12.7827 13.5226 14.1754L12.6578 15.7075C10.9204 18.788 10.4804 19.4896 9.61171 20.6475C8.08915 22.6751 6.789 23.4435 5.07743 23.4435C3.04703 23.4435 1.76312 22.5643 0.967948 21.2394C0.318831 20.1597 0 18.7431 0 17.1289L2.96494 17.2349Z" fill="#0081FB"/>
<path d="M2.33594 8.77154C3.69527 6.67622 5.65694 5.21094 7.90689 5.21094C9.2099 5.21094 10.5053 5.59659 11.8579 6.70104C13.3375 7.90859 14.9145 9.89699 16.8819 13.1741L17.5873 14.3501C19.2903 17.1872 20.2592 18.6467 20.8262 19.335C21.5555 20.2189 22.0662 20.4824 22.7297 20.4824C24.4126 20.4824 24.8326 18.9359 24.8326 17.1661L27.4482 17.0841C27.4482 18.934 27.0835 20.2934 26.463 21.3673C25.8636 22.4059 24.6952 23.4435 22.7297 23.4435C21.5078 23.4435 20.4253 23.1781 19.2283 22.0488C18.308 21.1821 17.2322 19.6423 16.4046 18.2582L13.9427 14.1458C12.7075 12.082 11.5744 10.5432 10.9186 9.8464C10.2132 9.09705 9.30631 8.1921 7.85916 8.1921C6.68789 8.1921 5.69321 9.014 4.86081 10.2712L2.33594 8.77154Z" fill="url(#paint0_linear_17039_61789)"/>
<path d="M7.861 8.1921C6.68973 8.1921 5.69505 9.014 4.86265 10.2712C3.68565 12.0477 2.96494 14.6938 2.96494 17.2349C2.96494 18.283 3.19499 19.0877 3.49569 19.5746L0.967948 21.2394C0.318831 20.1597 0 18.7431 0 17.1289C0 14.1936 0.805669 11.1341 2.33778 8.77154C3.6971 6.67622 5.65877 5.21094 7.90873 5.21094L7.861 8.1921Z" fill="url(#paint1_linear_17039_61789)"/>
</g>
<defs>
<linearGradient id="paint0_linear_17039_61789" x1="5.82112" y1="16.3796" x2="24.7219" y2="17.3342" gradientUnits="userSpaceOnUse">
<stop stop-color="#0064E1"/>
<stop offset="0.4" stop-color="#0064E1"/>
<stop offset="0.83" stop-color="#0073EE"/>
<stop offset="1" stop-color="#0082FB"/>
</linearGradient>
<linearGradient id="paint1_linear_17039_61789" x1="4.29563" y1="18.4797" x2="4.29563" y2="11.5112" gradientUnits="userSpaceOnUse">
<stop stop-color="#0082FB"/>
<stop offset="1" stop-color="#0064E0"/>
</linearGradient>
<clipPath id="clip0_17039_61789">
<rect width="27.45" height="18.2326" fill="white" transform="translate(0 5.21094)"/>
</clipPath>
</defs>
</svg>
