<svg width="24" height="24" viewBox="0 0 256 256" xmlns="http://www.w3.org/2000/svg">
  <polygon fill="#8AB4F8" points="150.262 245.516 105.825 202.185 201.258 104.731 247.265 149.822"></polygon>
  <path d="M150.451 53.938L106.175 8.731L9.36 104.629C-3.12 117.109-3.12 137.342 9.36 149.836L104.72 245.822L149.811 203.64L77.156 127.233L150.451 53.938Z" fill="#4285F4"></path>
  <path d="M246.625 105.371L150.625 9.371C138.131-3.124 117.869-3.124 105.375 9.371C92.88 21.865 92.88 42.127 105.375 54.622L201.375 150.622C213.869 163.116 234.131 163.116 246.625 150.622C259.12 138.127 259.12 117.865 246.625 105.371Z" fill="#8AB4F8"></path>
  <circle fill="#246FDB" cx="127.265" cy="224.731" r="31.273"></circle>
</svg>