<svg width="28" height="28" viewBox="0 0 28 28" fill="none" xmlns="http://www.w3.org/2000/svg">
<g clip-path="url(#clip0_20068_51512)">
<path d="M27.2182 15.8012L15.8005 27.2189C14.7589 28.2605 13.0693 28.2605 12.0277 27.2189C10.985 26.1773 10.9861 24.4877 12.0277 23.4461L23.4465 12.0273C24.4881 10.9857 26.1777 10.9857 27.2193 12.0273C28.2609 13.07 28.2609 14.7585 27.2182 15.8012Z" fill="#FBBC04"/>
<path d="M15.8012 27.2189C16.8433 26.1768 16.8433 24.4873 15.8012 23.4452C14.7591 22.4031 13.0696 22.4031 12.0275 23.4452C10.9854 24.4873 10.9854 26.1768 12.0275 27.2189C13.0696 28.261 14.7591 28.261 15.8012 27.2189Z" fill="#34A853"/>
<path d="M17.8233 6.4051L12.1133 12.1139L15.8861 15.8867L21.5961 10.1779C22.6377 9.13631 22.6377 7.4467 21.5961 6.4051C20.5533 5.36236 18.8649 5.36236 17.8233 6.4051Z" fill="#FBBC04"/>
<path d="M10.179 21.5959L15.8878 15.8871L12.115 12.1143L6.4062 17.8231C5.3646 18.8647 5.3646 20.5543 6.4062 21.5959C7.4478 22.6375 9.13741 22.6375 10.179 21.5959Z" fill="#3B80EF"/>
<path d="M15.8989 15.8742C16.941 14.8321 16.941 13.1425 15.8989 12.1004C14.8568 11.0583 13.1672 11.0583 12.1251 12.1004C11.0831 13.1425 11.0831 14.8321 12.1251 15.8742C13.1672 16.9163 14.8568 16.9163 15.8989 15.8742Z" fill="#34A853"/>
<path d="M15.9728 4.55401L4.55401 15.9728C3.51241 17.0144 1.8228 17.0144 0.7812 15.9728C-0.2604 14.9312 -0.2604 13.2416 0.7812 12.2L12.2 0.7812C13.2416 -0.2604 14.9312 -0.2604 15.9728 0.7812C17.0144 1.8228 17.0144 3.51241 15.9728 4.55401Z" fill="#3B80EF"/>
<path d="M14.0864 5.33692C15.5602 5.33692 16.7549 4.14221 16.7549 2.66846C16.7549 1.19471 15.5602 0 14.0864 0C12.6127 0 11.418 1.19471 11.418 2.66846C11.418 4.14221 12.6127 5.33692 14.0864 5.33692Z" fill="#34A853"/>
</g>
<defs>
<clipPath id="clip0_20068_51512">
<rect width="28" height="28" fill="white"/>
</clipPath>
</defs>
</svg>
