<svg width="28" height="28" viewBox="0 0 28 28" fill="none" xmlns="http://www.w3.org/2000/svg">
<g clip-path="url(#clip0_17039_61827)">
<path d="M26.3779 12.769C25.732 6.43356 20.3878 1.61196 14.0187 1.62503C7.17363 1.63809 1.60163 7.25489 1.64083 14.0944C1.68003 20.4298 6.4811 25.7218 12.7848 26.3621C12.8427 26.3696 12.9024 26.336 12.9286 26.2781C12.936 26.2576 12.9416 26.2389 12.9416 26.2184V14.0234H11.9747C11.8963 14.0234 11.831 13.9637 11.831 13.8872V11.9608C11.831 11.8824 11.8963 11.817 11.9747 11.817H14.9987C15.0771 11.817 15.1424 11.8824 15.1424 11.9608V26.2202C15.1424 26.2986 15.2078 26.364 15.2862 26.364H15.2992C22.1126 25.6714 27.0704 19.5842 26.3779 12.7709V12.769ZM17.5392 23.5994C17.4683 23.6256 17.3899 23.5864 17.3638 23.5154C17.3563 23.5024 17.3507 23.4837 17.3507 23.4706V21.4322C17.3507 21.3482 17.403 21.2754 17.4739 21.2362C21.4592 19.3416 23.1504 14.5797 21.2558 10.5962C19.9099 7.77383 17.0427 5.99116 13.9198 6.04343C9.6731 6.10876 6.19176 9.52476 6.0611 13.7714C5.95656 16.9392 7.7467 19.8717 10.6083 21.2381C10.6867 21.2773 10.7315 21.3482 10.7315 21.4341V23.4725C10.7315 23.5509 10.6662 23.6088 10.5878 23.6088C10.5747 23.6088 10.5542 23.6088 10.543 23.6013C6.4923 22.1192 3.8155 18.2458 3.84723 13.9338C3.8995 8.39543 8.42056 3.87436 13.959 3.83516C19.615 3.79036 24.2331 8.38236 24.2331 14.0253C24.2331 18.4213 21.4443 22.1714 17.5374 23.6013L17.5392 23.5994Z" fill="#E44A49"/>
</g>
<defs>
<clipPath id="clip0_17039_61827">
<rect width="28" height="28" fill="white"/>
</clipPath>
</defs>
</svg>
