<svg width="43" height="43" viewBox="0 0 43 43" fill="none" xmlns="http://www.w3.org/2000/svg">
<g clip-path="url(#clip0_19831_112098)">
<path d="M21.5331 25.0055C23.4563 25.0055 25.0154 23.4357 25.0154 21.4993C25.0154 19.5628 23.4563 17.993 21.5331 17.993C19.6099 17.993 18.0508 19.5628 18.0508 21.4993C18.0508 23.4357 19.6099 25.0055 21.5331 25.0055Z" fill="#61DAFB"/>
<path d="M21.5391 28.6827C31.8588 28.6827 40.2246 25.4666 40.2246 21.4992C40.2246 17.5318 31.8588 14.3157 21.5391 14.3157C11.2193 14.3157 2.85352 17.5318 2.85352 21.4992C2.85352 25.4666 11.2193 28.6827 21.5391 28.6827Z" stroke="#61DAFB" stroke-width="0.813954"/>
<path d="M15.3605 25.0905C20.5204 34.0891 27.4695 39.7758 30.8819 37.7921C34.2943 35.8084 32.8776 26.9055 27.7178 17.9069C22.5579 8.90833 15.6087 3.22161 12.1964 5.20529C8.78399 7.18897 10.2006 16.0919 15.3605 25.0905Z" stroke="#61DAFB" stroke-width="0.813954"/>
<path d="M15.3585 17.9091C10.1987 26.9077 8.78204 35.8106 12.1944 37.7942C15.6068 39.7779 22.556 34.0912 27.7158 25.0926C32.8757 16.094 34.2923 7.19111 30.88 5.20743C27.4676 3.22375 20.5184 8.91047 15.3585 17.9091Z" stroke="#61DAFB" stroke-width="0.813954"/>
</g>
<defs>
<clipPath id="clip0_19831_112098">
<rect width="39.0698" height="34.761" fill="white" transform="translate(2 4)"/>
</clipPath>
</defs>
</svg>
