<svg width="24" height="24" viewBox="0 0 32 32" fill="none" xmlns="http://www.w3.org/2000/svg">
  <path d="M26.5 15C27.881 15 29 13.88 29 12.5C29 11.119 27.881 10 26.5 10C25.119 10 24 11.119 24 12.5V15H26.5ZM19.5 15C20.881 15 22 13.88 22 12.5V5.5C22 4.119 20.881 3 19.5 3C18.119 3 17 4.119 17 5.5V12.5C17 13.88 18.119 15 19.5 15Z" fill="#2EB67D"></path>
  <path d="M5.5 17C4.119 17 3 18.12 3 19.5C3 20.881 4.119 22 5.5 22C6.881 22 8 20.881 8 19.5V17H5.5ZM12.5 17C11.119 17 10 18.12 10 19.5V26.5C10 27.881 11.119 29 12.5 29C13.881 29 15 27.881 15 26.5V19.5C15 18.12 13.881 17 12.5 17Z" fill="#E01E5A"></path>
  <path d="M17 26.5C17 27.881 18.12 29 19.5 29C20.881 29 22 27.881 22 26.5C22 25.119 20.881 24 19.5 24H17V26.5ZM17 19.5C17 20.881 18.12 22 19.5 22H26.5C27.881 22 29 20.881 29 19.5C29 18.119 27.881 17 26.5 17H19.5C18.12 17 17 18.119 17 19.5Z" fill="#ECB22E"></path>
  <path d="M15 5.5C15 4.119 13.88 3 12.5 3C11.119 3 10 4.119 10 5.5C10 6.881 11.119 8 12.5 8H15V5.5ZM15 12.5C15 11.119 13.88 10 12.5 10H5.5C4.119 10 3 11.119 3 12.5C3 13.881 4.119 15 5.5 15H12.5C13.88 15 15 13.881 15 12.5Z" fill="#36C5F0"></path>
</svg>