<svg width="43" height="43" viewBox="0 0 43 43" fill="none" xmlns="http://www.w3.org/2000/svg">
<g clip-path="url(#clip0_12982_38174)">
<path d="M9.21007 27.0866C9.21007 29.5583 7.21243 31.5559 4.74078 31.5559C2.26912 31.5559 0.271484 29.5583 0.271484 27.0866C0.271484 24.6149 2.26912 22.6173 4.74078 22.6173H9.21007V27.0866ZM11.4447 27.0866C11.4447 24.6149 13.4424 22.6173 15.914 22.6173C18.3857 22.6173 20.3833 24.6149 20.3833 27.0866V38.2598C20.3833 40.7315 18.3857 42.7291 15.914 42.7291C13.4424 42.7291 11.4447 40.7315 11.4447 38.2598V27.0866Z" fill="#E01E5A"/>
<path d="M15.9127 9.14171C13.4411 9.14171 11.4434 7.14407 11.4434 4.67242C11.4434 2.20076 13.4411 0.203125 15.9127 0.203125C18.3844 0.203125 20.382 2.20076 20.382 4.67242V9.14171H15.9127ZM15.9127 11.4102C18.3844 11.4102 20.382 13.4079 20.382 15.8795C20.382 18.3512 18.3844 20.3488 15.9127 20.3488H4.70562C2.23397 20.3488 0.236328 18.3512 0.236328 15.8795C0.236328 13.4079 2.23397 11.4102 4.70562 11.4102H15.9127Z" fill="#36C5F0"/>
<path d="M33.8236 15.8795C33.8236 13.4079 35.8213 11.4102 38.2929 11.4102C40.7646 11.4102 42.7622 13.4079 42.7622 15.8795C42.7622 18.3512 40.7646 20.3488 38.2929 20.3488H33.8236V15.8795ZM31.589 15.8795C31.589 18.3512 29.5913 20.3488 27.1197 20.3488C24.648 20.3488 22.6504 18.3512 22.6504 15.8795V4.67242C22.6504 2.20076 24.648 0.203125 27.1197 0.203125C29.5913 0.203125 31.589 2.20076 31.589 4.67242V15.8795Z" fill="#2EB67D"/>
<path d="M27.1197 33.7905C29.5913 33.7905 31.589 35.7882 31.589 38.2598C31.589 40.7315 29.5913 42.7291 27.1197 42.7291C24.648 42.7291 22.6504 40.7315 22.6504 38.2598V33.7905H27.1197ZM27.1197 31.5559C24.648 31.5559 22.6504 29.5583 22.6504 27.0866C22.6504 24.6149 24.648 22.6173 27.1197 22.6173H38.3268C40.7984 22.6173 42.7961 24.6149 42.7961 27.0866C42.7961 29.5583 40.7984 31.5559 38.3268 31.5559H27.1197Z" fill="#ECB22E"/>
</g>
<defs>
<clipPath id="clip0_12982_38174">
<rect width="43" height="43" fill="white"/>
</clipPath>
</defs>
</svg>
