<svg width="36" height="36" viewBox="0 0 36 36" fill="none" xmlns="http://www.w3.org/2000/svg">
<g clip-path="url(#clip0_19819_111332)">
<path d="M30.7279 5.2721C27.3281 1.87228 22.808 0 18 0C13.192 0 8.67178 1.87228 5.2721 5.27203C1.87228 8.67178 0 13.192 0 18C0 22.808 1.87228 27.3281 5.2721 30.7279C8.67178 34.1276 13.192 35.9999 18 35.9999C22.808 35.9999 27.3281 34.1276 30.728 30.7278C34.1276 27.3281 36 22.8079 36 17.9999C36 13.192 34.1276 8.67178 30.7279 5.2721ZM6.76519 6.76519C8.34799 5.18238 10.2061 3.97512 12.2314 3.18712C11.692 3.86058 11.1872 4.63465 10.7246 5.50526C10.1874 6.51635 9.7238 7.6268 9.33771 8.8129C8.00023 8.59092 6.76097 8.31797 5.65383 7.99763C6.00298 7.5681 6.37392 7.15675 6.76519 6.76519ZM4.37548 9.81457C5.67042 10.2292 7.15134 10.5789 8.76727 10.8558C8.31727 12.7659 8.0524 14.8214 7.98919 16.9443H2.14706C2.313 14.3966 3.07814 11.9652 4.37548 9.81457ZM4.26052 25.9902C3.03321 23.8879 2.30801 21.5267 2.14699 19.0557H7.9932C8.06224 21.1179 8.32184 23.115 8.75665 24.9751C7.10754 25.2424 5.58942 25.5832 4.26052 25.9902ZM6.76519 29.2348C6.32018 28.7896 5.90155 28.3187 5.51145 27.8247C6.65916 27.5065 7.94222 27.237 9.32337 27.0208C9.7122 28.2234 10.1808 29.3485 10.7246 30.372C11.2287 31.3208 11.783 32.1544 12.3776 32.8685C10.2956 32.0822 8.38603 30.8555 6.76519 29.2348ZM16.9442 33.6175C15.3405 33.1682 13.8234 31.7038 12.5893 29.3812C12.1577 28.569 11.7785 27.6828 11.4538 26.7384C13.1926 26.547 15.0429 26.4338 16.9442 26.4073V33.6175ZM16.9442 24.2956C14.8357 24.3243 12.7805 24.4567 10.8558 24.6828C10.4313 22.9277 10.1758 21.0281 10.1057 19.0558H16.9443V24.2956H16.9442ZM16.9442 16.9442H10.1017C10.1658 14.9168 10.4253 12.9641 10.8631 11.1644C12.7754 11.4035 14.8263 11.5489 16.9442 11.5905V16.9442ZM16.9442 9.47869C15.0355 9.44023 13.1893 9.31577 11.4628 9.11271C11.7856 8.17812 12.1617 7.3009 12.5893 6.49603C13.8234 4.17347 15.3405 2.709 16.9442 2.25977V9.47869ZM31.691 9.92672C32.9478 12.0497 33.6898 14.4407 33.8531 16.9442H28.011C27.9484 14.8458 27.6886 12.8134 27.2481 10.9221C28.8746 10.6594 30.3739 10.3252 31.691 9.92672ZM29.2347 6.76519C29.6553 7.18618 30.0523 7.63006 30.424 8.0948C29.2939 8.4034 28.0354 8.66531 26.6831 8.87611C26.293 7.66617 25.8223 6.53435 25.2754 5.50526C24.8129 4.63465 24.3081 3.86058 23.7686 3.18712C25.7938 3.97512 27.652 5.18238 29.2347 6.76519ZM19.0558 19.0558H25.8943C25.8237 21.0434 25.5649 22.9575 25.1343 24.7238C23.2222 24.4861 21.1722 24.342 19.0558 24.3015V19.0558ZM19.0558 16.9442V11.5976C21.1655 11.5699 23.2223 11.4386 25.1488 11.2134C25.5795 12.9995 25.8348 14.9351 25.8983 16.9442H19.0558ZM19.0557 2.25977H19.0557C20.6594 2.709 22.1765 4.17347 23.4106 6.49603C23.845 7.31355 24.2263 8.20589 24.5525 9.15722C22.8113 9.34791 20.959 9.4602 19.0557 9.48586V2.25977ZM19.0558 33.6175V26.4134C20.9627 26.4508 22.8075 26.5741 24.5334 26.7759C24.2114 27.7063 23.8365 28.5797 23.4107 29.3812C22.1766 31.7038 20.6595 33.1682 19.0558 33.6175ZM29.2347 29.2348C27.614 30.8556 25.7044 32.0822 23.6223 32.8684C24.217 32.1543 24.7712 31.3208 25.2754 30.372C25.8112 29.3637 26.2737 28.2565 26.6591 27.074C28.0278 27.2999 29.2939 27.5792 30.4219 27.9078C30.0508 28.3716 29.6545 28.8146 29.2347 29.2348ZM31.6832 26.0866C30.373 25.6653 28.8707 25.3109 27.2306 25.0312C27.6733 23.1552 27.9371 21.1387 28.0069 19.0558H33.8531C33.6895 21.5644 32.9449 23.9603 31.6832 26.0866Z" fill="#1077B5"/>
</g>
<defs>
<clipPath id="clip0_19819_111332">
<rect width="36" height="36" fill="white"/>
</clipPath>
</defs>
</svg>
