<svg width="512" height="512" viewBox="0 0 512 512" fill="none" xmlns="http://www.w3.org/2000/svg">
<g clip-path="url(#clip0_17045_68330)">
<path d="M437.019 74.981C388.667 26.628 324.38 0 256 0C187.62 0 123.332 26.628 74.981 74.98C26.628 123.332 0 187.62 0 256C0 324.38 26.628 388.667 74.981 437.019C123.332 485.371 187.62 511.999 256 511.999C324.381 511.999 388.667 485.371 437.02 437.018C485.371 388.667 512 324.379 512 255.999C512 187.619 485.371 123.332 437.019 74.981ZM96.216 96.216C118.727 73.705 145.154 56.535 173.958 45.328C166.286 54.906 159.107 65.915 152.528 78.297C144.887 92.677 138.294 108.47 132.803 125.339C113.781 122.182 96.156 118.3 80.41 113.744C85.3758 107.635 90.6514 101.785 96.216 96.216ZM62.229 139.585C80.646 145.482 101.708 150.455 124.69 154.394C118.29 181.56 114.523 210.793 113.624 240.985H30.536C32.896 204.752 43.778 170.172 62.229 139.585ZM60.594 369.638C43.139 339.739 32.825 306.157 30.535 271.015H113.681C114.663 300.344 118.355 328.746 124.539 355.201C101.085 359.003 79.494 363.85 60.594 369.638ZM96.216 415.784C89.8869 409.452 83.9331 402.755 78.385 395.729C94.708 391.203 112.956 387.37 132.599 384.296C138.129 401.399 144.793 417.401 152.527 431.958C159.697 445.451 167.58 457.307 176.037 467.463C146.427 456.28 119.268 438.834 96.216 415.784ZM240.984 478.115C218.176 471.726 196.6 450.898 179.048 417.866C172.909 406.314 167.517 393.711 162.898 380.279C187.628 377.557 213.943 375.948 240.984 375.57V478.115ZM240.984 345.537C210.996 345.946 181.767 347.829 154.394 351.044C148.356 326.083 144.723 299.066 143.726 271.016H240.985V345.537H240.984ZM240.984 240.984H143.669C144.58 212.15 148.271 184.379 154.497 158.783C181.695 162.183 210.863 164.251 240.984 164.843V240.984ZM240.984 134.808C213.838 134.261 187.581 132.491 163.026 129.603C167.617 116.311 172.967 103.835 179.048 92.388C196.599 59.356 218.176 38.528 240.984 32.139V134.808ZM450.717 141.18C468.591 171.373 479.144 205.379 481.466 240.984H398.378C397.489 211.14 393.794 182.235 387.528 155.337C410.661 151.601 431.984 146.848 450.717 141.18ZM415.783 96.216C421.764 102.204 427.411 108.516 432.697 115.126C416.624 119.515 398.725 123.24 379.493 126.238C373.945 109.03 367.25 92.933 359.473 78.297C352.894 65.915 345.715 54.906 338.043 45.328C366.845 56.535 393.273 73.705 415.783 96.216ZM271.016 271.016H368.275C367.271 299.284 363.589 326.506 357.465 351.628C330.271 348.247 301.116 346.198 271.016 345.622V271.016ZM271.016 240.984V164.943C301.021 164.549 330.273 162.682 357.672 159.479C363.797 184.882 367.428 212.411 368.331 240.984H271.016ZM271.014 32.139H271.015C293.823 38.528 315.399 59.356 332.951 92.388C339.129 104.015 344.552 116.706 349.191 130.236C324.428 132.948 298.083 134.545 271.014 134.91V32.139ZM271.016 478.115V375.657C298.136 376.189 324.373 377.943 348.919 380.813C344.34 394.045 339.008 406.467 332.952 417.866C315.4 450.898 293.824 471.726 271.016 478.115ZM415.783 415.784C392.732 438.835 365.573 456.28 335.962 467.462C344.419 457.306 352.302 445.451 359.472 431.958C367.092 417.617 373.67 401.87 379.152 385.052C398.617 388.265 416.625 392.238 432.667 396.911C427.389 403.507 421.753 409.807 415.783 415.784ZM450.606 371.009C431.971 365.018 410.606 359.977 387.28 355.999C393.576 329.319 397.328 300.639 398.321 271.016H481.467C479.139 306.694 468.549 340.769 450.606 371.009Z" fill="#1077B5"/>
</g>
<defs>
<clipPath id="clip0_17045_68330">
<rect width="512" height="512" fill="white"/>
</clipPath>
</defs>
</svg>
